<?xml version="1.0" encoding="UTF-8" standalone="no"?>
<svg
   width="804.54657"
   height="804.17731"
   viewBox="0 0 212.86962 212.77192"
   version="1.1"
   id="svg8"
   sodipodi:docname="ommlogo-dark.svg"
   inkscape:version="1.2.2 (732a01da63, 2022-12-09)"
   inkscape:export-filename="C:\Users\drini\Dropbox\OMM\00-ADM\LOGOS\logo-blanconegro.png"
   inkscape:export-xdpi="90"
   inkscape:export-ydpi="90"
   xmlns:inkscape="http://www.inkscape.org/namespaces/inkscape"
   xmlns:sodipodi="http://sodipodi.sourceforge.net/DTD/sodipodi-0.dtd"
   xmlns="http://www.w3.org/2000/svg"
   xmlns:svg="http://www.w3.org/2000/svg"
   xmlns:rdf="http://www.w3.org/1999/02/22-rdf-syntax-ns#"
   xmlns:cc="http://creativecommons.org/ns#"
   xmlns:dc="http://purl.org/dc/elements/1.1/">
  <defs
     id="defs2" />
  <sodipodi:namedview
     id="base"
     pagecolor="#ffffff"
     bordercolor="#666666"
     borderopacity="1.0"
     inkscape:pageopacity="0.0"
     inkscape:pageshadow="2"
     inkscape:zoom="0.65830541"
     inkscape:cx="407.10588"
     inkscape:cy="397.99156"
     inkscape:document-units="mm"
     inkscape:current-layer="layer3"
     showgrid="false"
     showguides="false"
     inkscape:window-width="1600"
     inkscape:window-height="829"
     inkscape:window-x="-8"
     inkscape:window-y="-8"
     inkscape:window-maximized="1"
     objecttolerance="8"
     fit-margin-top="20"
     fit-margin-left="20"
     fit-margin-right="20"
     fit-margin-bottom="20"
     units="px"
     inkscape:document-rotation="0"
     inkscape:showpageshadow="0"
     inkscape:pagecheckerboard="1"
     inkscape:deskcolor="#d1d1d1" />
  <metadata
     id="metadata5">
    <rdf:RDF>
      <cc:Work
         rdf:about="">
        <dc:format>image/svg+xml</dc:format>
        <dc:type
           rdf:resource="http://purl.org/dc/dcmitype/StillImage" />
        <dc:title />
      </cc:Work>
    </rdf:RDF>
  </metadata>
  <g
     inkscape:groupmode="layer"
     id="layer1"
     inkscape:label="fondo" />
  <g
     inkscape:groupmode="layer"
     id="layer2"
     inkscape:label="vector"
     style="display:inline"
     transform="translate(1.9168978,-2.7410872)" />
  <g
     inkscape:groupmode="layer"
     id="layer3"
     inkscape:label="letras"
     style="display:inline"
     transform="translate(1.9168978,-2.7410872)">
    <path
       style="display:inline;vector-effect:none;fill:none;fill-opacity:1;stroke:none;stroke-width:1.58272;stroke-linecap:butt;stroke-linejoin:miter;stroke-miterlimit:4;stroke-dasharray:none;stroke-dashoffset:0;stroke-opacity:1"
       d="M -1.1252861,1.3043687 V 214.72165 H 212.29199 V 1.3043687 Z"
       id="rect4599"
       inkscape:connector-curvature="0" />
    <circle
       r="76.351196"
       cy="104.9881"
       cx="104.32143"
       id="circle4770"
       style="display:inline;vector-effect:none;fill:none;fill-opacity:1;stroke:#ffffff;stroke-width:3;stroke-linecap:butt;stroke-linejoin:miter;stroke-miterlimit:4;stroke-dasharray:none;stroke-dashoffset:0;stroke-opacity:1" />
    <path
       style="display:inline;vector-effect:none;fill:none;fill-opacity:1;stroke:none;stroke-width:2.23455;stroke-linecap:butt;stroke-linejoin:miter;stroke-miterlimit:4;stroke-dasharray:none;stroke-dashoffset:0;stroke-opacity:1"
       id="circle4816"
       sodipodi:type="arc"
       sodipodi:cx="104.32143"
       sodipodi:cy="104.9881"
       sodipodi:rx="85.305351"
       sodipodi:ry="85.305351"
       sodipodi:start="2.7724743"
       sodipodi:end="0.4674267"
       sodipodi:arc-type="slice"
       d="M 24.761749,135.7657 A 85.305351,85.305351 0 0 1 55.182627,35.257321 85.305351,85.305351 0 0 1 160.06705,40.416984 85.305351,85.305351 0 0 1 180.47614,143.42588 L 104.32143,104.9881 Z" />
    <path
       id="path9258"
       style="font-style:normal;font-variant:normal;font-weight:bold;font-stretch:normal;font-size:medium;line-height:5;font-family:'Fira Sans';-inkscape-font-specification:'Fira Sans, Bold';font-variant-ligatures:normal;font-variant-caps:normal;font-variant-numeric:normal;font-feature-settings:normal;text-align:start;letter-spacing:0px;word-spacing:0px;writing-mode:lr-tb;text-anchor:start;fill:#ffffff;fill-opacity:1;stroke:none;stroke-width:0.264583"
       d="m 9.1141756,133.32201 c 1.0996574,3.69205 4.3533524,5.1347 8.6323424,3.86023 4.373658,-1.30267 6.23203,-4.26793 5.132373,-7.95997 -1.105297,-3.71099 -4.358992,-5.15364 -8.656916,-3.87352 -4.3736575,1.30267 -6.2130961,4.26228 -5.1077994,7.97326 z m 2.2720304,-0.67671 c -0.524452,-1.76082 0.492346,-3.0531 3.805723,-4.03998 3.332311,-0.99251 4.88484,-0.4861 5.414932,1.29366 0.507534,1.70402 -0.497987,3.03417 -3.830297,4.02668 -3.313377,0.98687 -4.871546,0.46153 -5.390358,-1.28036 z"
       inkscape:connector-curvature="0" />
    <path
       id="path9260"
       style="font-style:normal;font-variant:normal;font-weight:bold;font-stretch:normal;font-size:medium;line-height:5;font-family:'Fira Sans';-inkscape-font-specification:'Fira Sans, Bold';font-variant-ligatures:normal;font-variant-caps:normal;font-variant-numeric:normal;font-feature-settings:normal;text-align:start;letter-spacing:0px;word-spacing:0px;writing-mode:lr-tb;text-anchor:start;fill:#ffffff;fill-opacity:1;stroke:none;stroke-width:0.264583"
       d="m 20.449636,118.69038 c -0.130697,-0.73925 -0.403267,-1.37316 -0.680351,-1.80566 l -2.072211,0.98828 c 0.08244,0.12586 0.14886,0.27461 0.186694,0.4886 0.06535,0.36963 -0.121129,0.56309 -0.549114,0.63876 L 5.3121704,121.1259 6.1863091,124.14114 17.9948,122.05343 c 1.887024,-0.33362 2.771259,-1.57329 2.454836,-3.36305 z"
       inkscape:connector-curvature="0" />
    <path
       id="path9262"
       style="font-style:normal;font-variant:normal;font-weight:bold;font-stretch:normal;font-size:medium;line-height:5;font-family:'Fira Sans';-inkscape-font-specification:'Fira Sans, Bold';font-variant-ligatures:normal;font-variant-caps:normal;font-variant-numeric:normal;font-feature-settings:normal;text-align:start;letter-spacing:0px;word-spacing:0px;writing-mode:lr-tb;text-anchor:start;fill:#ffffff;fill-opacity:1;stroke:none;stroke-width:0.264583"
       d="m 3.574544,115.89367 c 0.1168897,1.08024 0.9636452,1.74371 1.9653314,1.63533 1.0016861,-0.10839 1.6869213,-0.93763 1.5700316,-2.01788 -0.1168898,-1.08025 -0.9657705,-1.76336 -1.9674567,-1.65497 -1.0016861,0.10838 -1.684796,0.95727 -1.5679063,2.03752 z m 5.3294321,-2.16635 0.3357923,3.10326 10.4293206,-1.12852 -0.335792,-3.10326 z"
       inkscape:connector-curvature="0" />
    <path
       id="path9264"
       style="font-style:normal;font-variant:normal;font-weight:bold;font-stretch:normal;font-size:medium;line-height:5;font-family:'Fira Sans';-inkscape-font-specification:'Fira Sans, Bold';font-variant-ligatures:normal;font-variant-caps:normal;font-variant-numeric:normal;font-feature-settings:normal;text-align:start;letter-spacing:0px;word-spacing:0px;writing-mode:lr-tb;text-anchor:start;fill:#ffffff;fill-opacity:1;stroke:none;stroke-width:0.264583"
       d="m 8.3115223,98.327444 c -0.031012,1.34302 0.5193996,2.324006 1.5865111,3.178606 -1.0760928,0.39013 -1.6891241,1.26521 -1.7160315,2.43048 -0.029644,1.28377 0.4817232,2.24409 1.4900399,3.07757 l -1.2295346,0.18898 -0.062936,2.72554 10.4874038,0.24216 0.07206,-3.12054 -7.169355,-0.16555 c -0.858523,-0.47432 -1.340879,-0.97948 -1.325829,-1.63124 0.01095,-0.47401 0.316777,-0.88192 1.422793,-0.85639 l 7.129854,0.16464 0.07206,-3.12054 -7.169356,-0.16555 c -0.858523,-0.47433 -1.341335,-0.95973 -1.325829,-1.631245 0.01095,-0.474006 0.316777,-0.881922 1.422793,-0.856382 l 7.129855,0.164636 0.07206,-3.120545 -7.663112,-0.176951 C 9.5401815,95.609061 8.3489191,96.70792 8.3115223,98.327444 Z"
       inkscape:connector-curvature="0" />
    <path
       id="path9266"
       style="font-style:normal;font-variant:normal;font-weight:bold;font-stretch:normal;font-size:medium;line-height:5;font-family:'Fira Sans';-inkscape-font-specification:'Fira Sans, Bold';font-variant-ligatures:normal;font-variant-caps:normal;font-variant-numeric:normal;font-feature-settings:normal;text-align:start;letter-spacing:0px;word-spacing:0px;writing-mode:lr-tb;text-anchor:start;fill:#ffffff;fill-opacity:1;stroke:none;stroke-width:0.264583"
       d="m 10.142405,85.670316 c -0.1830041,0.950567 0.0115,2.134758 0.914131,3.19374 l -1.1744375,-0.06516 -0.5191341,2.696505 14.6076826,2.812287 0.260307,-3.128583 -4.733433,-0.911285 c 0.860422,-0.498256 1.37394,-1.2846 1.568148,-2.293364 0.489256,-2.54131 -1.539879,-4.541429 -4.721367,-5.153932 -3.336682,-0.642382 -5.679028,0.133885 -6.201897,2.849789 z m 8.493675,2.802076 c -0.123248,0.640177 -0.511342,1.088537 -1.214285,1.395809 l -4.345446,-0.83659 c -0.670674,-0.59184 -0.997345,-1.298518 -0.870363,-1.958095 0.205413,-1.066962 1.003902,-1.557023 3.564611,-1.064032 2.308519,0.444438 3.085834,1.318348 2.865483,2.462908 z"
       inkscape:connector-curvature="0" />
    <path
       id="path9268"
       style="font-style:normal;font-variant:normal;font-weight:bold;font-stretch:normal;font-size:medium;line-height:5;font-family:'Fira Sans';-inkscape-font-specification:'Fira Sans, Bold';font-variant-ligatures:normal;font-variant-caps:normal;font-variant-numeric:normal;font-feature-settings:normal;text-align:start;letter-spacing:0px;word-spacing:0px;writing-mode:lr-tb;text-anchor:start;fill:#ffffff;fill-opacity:1;stroke:none;stroke-width:0.264583"
       d="m 7.2708245,75.861422 c -0.3124654,1.040658 0.2095703,1.981224 1.1745436,2.270964 0.9649734,0.289741 1.9187799,-0.207692 2.2312449,-1.24835 0.312465,-1.040657 -0.203889,-2.000145 -1.1688625,-2.289885 -0.9649733,-0.289741 -1.9244606,0.226613 -2.236926,1.267271 z m 5.7523885,0.07705 -0.897628,2.989526 10.047076,3.016711 0.897628,-2.989525 z"
       inkscape:connector-curvature="0" />
    <path
       id="path9270"
       style="font-style:normal;font-variant:normal;font-weight:bold;font-stretch:normal;font-size:medium;line-height:5;font-family:'Fira Sans';-inkscape-font-specification:'Fira Sans, Bold';font-variant-ligatures:normal;font-variant-caps:normal;font-variant-numeric:normal;font-feature-settings:normal;text-align:start;letter-spacing:0px;word-spacing:0px;writing-mode:lr-tb;text-anchor:start;fill:#ffffff;fill-opacity:1;stroke:none;stroke-width:0.264583"
       d="m 24.097667,67.745769 -3.767839,-1.537985 c -2.249729,-0.918311 -3.931362,-0.196425 -5.081117,2.620309 -0.447957,1.097428 -0.736904,2.537156 -0.77986,3.949267 l 2.170983,0.118001 c 0.06647,-1.103782 0.271791,-2.129547 0.525633,-2.751423 0.485286,-1.188881 1.019454,-1.50429 2.171754,-1.033936 l 0.420681,0.171717 -0.403161,0.987686 c -1.202016,2.944767 -0.706719,5.024683 1.414976,5.890733 1.774177,0.724196 3.536438,0.01388 4.327828,-1.924907 0.470354,-1.1523 0.526745,-2.388223 -0.250397,-3.516286 1.137753,-0.06903 1.791376,-0.67709 2.345717,-1.77377 l -1.637543,-1.372577 c -0.351263,0.390068 -0.707746,0.479274 -1.457655,0.173171 z m -0.723513,4.804449 c -0.291172,0.713328 -0.92015,0.947361 -1.68835,0.633791 -0.969396,-0.395695 -1.16535,-1.22251 -0.627802,-2.539425 l 0.291172,-0.713328 1.737595,0.709264 c 0.425152,0.578964 0.556159,1.25124 0.287385,1.909698 z"
       inkscape:connector-curvature="0" />
    <path
       id="path9272"
       style="font-style:normal;font-variant:normal;font-weight:bold;font-stretch:normal;font-size:medium;line-height:5;font-family:'Fira Sans';-inkscape-font-specification:'Fira Sans, Bold';font-variant-ligatures:normal;font-variant-caps:normal;font-variant-numeric:normal;font-feature-settings:normal;text-align:start;letter-spacing:0px;word-spacing:0px;writing-mode:lr-tb;text-anchor:start;fill:#ffffff;fill-opacity:1;stroke:none;stroke-width:0.264583"
       d="m 18.098618,53.710885 4.473607,2.563832 c -0.845688,0.243972 -1.593747,0.794363 -2.065256,1.617096 -1.345766,2.348215 -0.155675,4.92016 2.655328,6.531151 2.948124,1.689575 5.525981,1.641366 6.852101,-0.672568 0.707264,-1.234099 0.588688,-2.41778 0.12921,-3.364205 l 1.14128,0.471911 1.375236,-2.399636 -12.71807,-7.288749 z m 10.418666,8.043017 c -0.510802,0.891293 -1.464343,1.164533 -3.726857,-0.132117 -2.03969,-1.168951 -2.469498,-2.32607 -1.909581,-3.303065 0.333986,-0.582769 0.861125,-0.827142 1.576807,-0.963461 l 3.942259,2.259316 c 0.422892,0.811608 0.480827,1.505137 0.117372,2.139327 z"
       inkscape:connector-curvature="0" />
    <path
       id="path9274"
       style="font-style:normal;font-variant:normal;font-weight:bold;font-stretch:normal;font-size:medium;line-height:5;font-family:'Fira Sans';-inkscape-font-specification:'Fira Sans, Bold';font-variant-ligatures:normal;font-variant-caps:normal;font-variant-numeric:normal;font-feature-settings:normal;text-align:start;letter-spacing:0px;word-spacing:0px;writing-mode:lr-tb;text-anchor:start;fill:#ffffff;fill-opacity:1;stroke:none;stroke-width:0.264583"
       d="m 36.70144,47.966015 -3.230675,-2.474821 c -1.928995,-1.477685 -3.741287,-1.223505 -5.591397,1.19166 -0.720821,0.940973 -1.378261,2.254016 -1.791106,3.605112 l 2.063513,0.684841 c 0.354434,-1.04744 0.822317,-1.983087 1.230783,-2.516305 0.78089,-1.019388 1.379208,-1.1832 2.36723,-0.426337 l 0.360706,0.276315 -0.648739,0.846876 c -1.934206,2.524945 -2.003389,4.661902 -0.184174,6.055491 1.52124,1.165329 3.408277,0.94352 4.681729,-0.718866 0.756863,-0.988022 1.136331,-2.1656 0.683244,-3.458344 1.115852,0.23264 1.906389,-0.182098 2.729652,-1.094369 l -1.218885,-1.754946 c -0.441489,0.283949 -0.808883,0.276255 -1.451881,-0.216307 z m -1.961666,4.445005 c -0.468534,0.611633 -1.136922,0.671997 -1.795603,0.167422 -0.831193,-0.636726 -0.802786,-1.48597 0.0622,-2.615138 l 0.468535,-0.611633 1.489874,1.141302 c 0.257909,0.670399 0.207487,1.353463 -0.225006,1.918047 z"
       inkscape:connector-curvature="0" />
    <path
       id="path9276"
       style="font-style:normal;font-variant:normal;font-weight:bold;font-stretch:normal;font-size:medium;line-height:5;font-family:'Fira Sans';-inkscape-font-specification:'Fira Sans, Bold';font-variant-ligatures:normal;font-variant-caps:normal;font-variant-numeric:normal;font-feature-settings:normal;text-align:start;letter-spacing:0px;word-spacing:0px;writing-mode:lr-tb;text-anchor:start;fill:#ffffff;fill-opacity:1;stroke:none;stroke-width:0.264583"
       d="m 44.589756,25.809067 -3.123686,2.669784 4.575964,8.303372 -7.594526,-5.723437 -3.108669,2.656947 8.114078,11.074727 2.402836,-2.05368 -3.272536,-4.193793 c -1.184973,-1.50806 -2.288825,-2.799584 -3.70317,-4.241544 l 7.885894,5.760278 2.327747,-1.989502 -4.566978,-8.596922 c 1.028764,1.355701 2.342349,2.831802 3.662481,4.224344 l 3.658632,3.915776 2.417853,-2.066515 z"
       inkscape:connector-curvature="0" />
    <path
       id="path9278"
       style="font-style:normal;font-variant:normal;font-weight:bold;font-stretch:normal;font-size:medium;line-height:5;font-family:'Fira Sans';-inkscape-font-specification:'Fira Sans, Bold';font-variant-ligatures:normal;font-variant-caps:normal;font-variant-numeric:normal;font-feature-settings:normal;text-align:start;letter-spacing:0px;word-spacing:0px;writing-mode:lr-tb;text-anchor:start;fill:#ffffff;fill-opacity:1;stroke:none;stroke-width:0.264583"
       d="M 60.861854,25.152501 C 59.074842,22.262399 56.47321,21.54834 53.919167,23.12756 c -2.70527,1.672726 -2.858034,4.693789 -1.206087,7.365453 1.724674,2.789285 4.421351,3.769753 7.395468,1.930793 1.445051,-0.893506 2.255182,-2.137692 2.709373,-3.394064 L 60.811447,28.22641 c -0.440467,1.015615 -0.923134,1.662464 -1.64566,2.109217 -1.092189,0.675324 -2.11845,0.70598 -3.273492,-0.786401 l 5.511357,-3.40779 C 61.271025,25.85181 61.038477,25.43815 60.861854,25.152501 Z m -2.999258,0.971877 -2.974116,1.83896 c -0.862979,-1.696197 -0.701748,-2.562381 0.188807,-3.11303 1.058583,-0.654545 1.947728,-0.04297 2.712582,1.15645 z"
       inkscape:connector-curvature="0" />
    <path
       id="path9280"
       style="font-style:normal;font-variant:normal;font-weight:bold;font-stretch:normal;font-size:medium;line-height:5;font-family:'Fira Sans';-inkscape-font-specification:'Fira Sans, Bold';font-variant-ligatures:normal;font-variant-caps:normal;font-variant-numeric:normal;font-feature-settings:normal;text-align:start;letter-spacing:0px;word-spacing:0px;writing-mode:lr-tb;text-anchor:start;fill:#ffffff;fill-opacity:1;stroke:none;stroke-width:0.264583"
       d="m 68.037043,21.597423 0.561499,-5.630373 -3.0148,1.387911 0.130322,3.637249 -2.732382,-2.439349 -3.176307,1.462264 4.845434,3.249948 -0.763711,6.419417 3.086581,-1.420957 -0.02894,-4.314627 3.294976,2.811056 3.212198,-1.478787 z"
       inkscape:connector-curvature="0" />
    <path
       id="path9282"
       style="font-style:normal;font-variant:normal;font-weight:bold;font-stretch:normal;font-size:medium;line-height:5;font-family:'Fira Sans';-inkscape-font-specification:'Fira Sans, Bold';font-variant-ligatures:normal;font-variant-caps:normal;font-variant-numeric:normal;font-feature-settings:normal;text-align:start;letter-spacing:0px;word-spacing:0px;writing-mode:lr-tb;text-anchor:start;fill:#ffffff;fill-opacity:1;stroke:none;stroke-width:0.264583"
       d="m 70.587819,9.4322242 c -1.024616,0.3616154 -1.476114,1.3380048 -1.140798,2.2881028 0.335317,0.950098 1.299651,1.4268 2.324267,1.065185 1.024615,-0.361616 1.494743,-1.34458 1.159427,-2.294678 -0.335317,-0.9500977 -1.31828,-1.4202252 -2.342896,-1.0586098 z m 3.331301,4.6902388 -2.943441,1.038822 3.491232,9.892198 2.943441,-1.038822 z"
       inkscape:connector-curvature="0" />
    <path
       id="path9284"
       style="font-style:normal;font-variant:normal;font-weight:bold;font-stretch:normal;font-size:medium;line-height:5;font-family:'Fira Sans';-inkscape-font-specification:'Fira Sans, Bold';font-variant-ligatures:normal;font-variant-caps:normal;font-variant-numeric:normal;font-feature-settings:normal;text-align:start;letter-spacing:0px;word-spacing:0px;writing-mode:lr-tb;text-anchor:start;fill:#ffffff;fill-opacity:1;stroke:none;stroke-width:0.264583"
       d="m 81.429954,11.608775 c -3.042693,0.780215 -4.396446,3.533923 -3.56716,6.76798 0.824378,3.214921 3.277793,4.829228 6.397032,4.029384 1.39696,-0.358212 2.369968,-1.097186 3.11628,-2.08395 l -1.801301,-1.536787 c -0.609417,0.645741 -1.04808,1.00296 -1.775264,1.189427 -1.205596,0.309142 -2.185978,-0.173675 -2.765006,-2.431775 -0.583935,-2.277235 -0.06334,-3.348885 1.237941,-3.682562 0.688912,-0.176652 1.341026,-0.09913 2.119247,0.231576 l 0.840018,-2.132502 c -1.18696,-0.572609 -2.385691,-0.71391 -3.801787,-0.350791 z"
       inkscape:connector-curvature="0" />
    <path
       id="path9286"
       style="font-style:normal;font-variant:normal;font-weight:bold;font-stretch:normal;font-size:medium;line-height:5;font-family:'Fira Sans';-inkscape-font-specification:'Fira Sans, Bold';font-variant-ligatures:normal;font-variant-caps:normal;font-variant-numeric:normal;font-feature-settings:normal;text-align:start;letter-spacing:0px;word-spacing:0px;writing-mode:lr-tb;text-anchor:start;fill:#ffffff;fill-opacity:1;stroke:none;stroke-width:0.264583"
       d="M 96.770587,16.864127 96.235212,12.829852 C 95.915547,10.421037 94.454083,9.319614 91.438169,9.7198456 90.263137,9.87578 88.8699,10.339674 87.622754,11.003398 l 0.975305,1.94316 c 0.991164,-0.490251 1.983536,-0.821233 2.649387,-0.909596 1.272951,-0.168929 1.811927,0.138192 1.975658,1.371975 l 0.05977,0.450429 -1.057528,0.140341 c -3.153002,0.418424 -4.712651,1.880911 -4.411178,4.152639 0.252094,1.899634 1.743538,3.076794 3.819427,2.80131 1.233783,-0.163731 2.334654,-0.728328 2.928104,-1.96295 0.62474,0.953388 1.477057,1.218926 2.704251,1.155713 l 0.37858,-2.102901 c -0.512987,-0.111282 -0.767393,-0.376452 -0.873948,-1.179391 z m -4.529806,1.757003 c -0.76377,0.101357 -1.279172,-0.328464 -1.388326,-1.150987 -0.137742,-1.037944 0.48272,-1.618502 1.892758,-1.805624 l 0.763771,-0.101357 0.246896,1.860467 c -0.291527,0.656479 -0.81008,1.10394 -1.515099,1.197501 z"
       inkscape:connector-curvature="0" />
    <path
       id="path9288"
       style="font-style:normal;font-variant:normal;font-weight:bold;font-stretch:normal;font-size:medium;line-height:5;font-family:'Fira Sans';-inkscape-font-specification:'Fira Sans, Bold';font-variant-ligatures:normal;font-variant-caps:normal;font-variant-numeric:normal;font-feature-settings:normal;text-align:start;letter-spacing:0px;word-spacing:0px;writing-mode:lr-tb;text-anchor:start;fill:#ffffff;fill-opacity:1;stroke:none;stroke-width:0.264583"
       d="m 105.80309,8.8533629 c -1.30386,0.00248 -2.31034,0.5575564 -3.19738,1.5865361 l -0.21968,-1.2441835 -2.726263,0.00519 0.01998,10.4901805 3.121373,-0.0059 -0.0137,-7.171253 c 0.5515,-0.870296 1.12347,-1.365275 1.81491,-1.366592 0.61242,-0.0012 0.98834,0.294452 0.99045,1.400761 l 0.0136,7.131742 3.12137,-0.0059 -0.0146,-7.665141 c -0.004,-1.995307 -1.09257,-3.1588135 -2.91008,-3.1553521 z"
       inkscape:connector-curvature="0" />
    <path
       id="path9290"
       style="font-style:normal;font-variant:normal;font-weight:bold;font-stretch:normal;font-size:medium;line-height:5;font-family:'Fira Sans';-inkscape-font-specification:'Fira Sans, Bold';font-variant-ligatures:normal;font-variant-caps:normal;font-variant-numeric:normal;font-feature-settings:normal;text-align:start;letter-spacing:0px;word-spacing:0px;writing-mode:lr-tb;text-anchor:start;fill:#ffffff;fill-opacity:1;stroke:none;stroke-width:0.264583"
       d="m 119.72381,17.893159 0.51945,-4.036356 c 0.31016,-2.410058 -0.81914,-3.850092 -3.83661,-4.238419 -1.17564,-0.1512963 -2.6413,-0.061058 -4.01713,0.2598434 l 0.44313,2.1285496 c 1.08387,-0.219046 2.12797,-0.283862 2.79417,-0.198127 1.27361,0.163904 1.71554,0.59923 1.55668,1.833649 l -0.058,0.450662 -1.05808,-0.136167 c -3.15463,-0.405979 -5.03776,0.60654 -5.33026,2.879439 -0.2446,1.900615 0.89421,3.421546 2.97117,3.688836 1.23442,0.158861 2.44341,-0.103837 3.33424,-1.144466 0.35872,1.081926 1.11417,1.557598 2.31638,1.811907 l 0.90633,-1.934965 c -0.46716,-0.239386 -0.64486,-0.561033 -0.54148,-1.364386 z m -4.82921,0.533786 c -0.76416,-0.09834 -1.15179,-0.646188 -1.04588,-1.469135 0.13365,-1.03848 0.88248,-1.440073 2.29324,-1.258517 l 0.76417,0.09834 -0.23956,1.861427 c -0.45045,0.559502 -1.06659,0.858661 -1.77197,0.767883 z"
       inkscape:connector-curvature="0" />
    <path
       id="path9292"
       style="font-style:normal;font-variant:normal;font-weight:bold;font-stretch:normal;font-size:medium;line-height:5;font-family:'Fira Sans';-inkscape-font-specification:'Fira Sans, Bold';font-variant-ligatures:normal;font-variant-caps:normal;font-variant-numeric:normal;font-feature-settings:normal;text-align:start;letter-spacing:0px;word-spacing:0px;writing-mode:lr-tb;text-anchor:start;fill:#ffffff;fill-opacity:1;stroke:none;stroke-width:0.264583"
       d="m 136.98694,10.135945 -1.60038,4.901546 c -0.41087,-0.778392 -1.10191,-1.398875 -2.00334,-1.693199 -2.57284,-0.84005 -4.84899,0.84826 -5.85459,3.928158 -1.05466,3.230138 -0.48317,5.744311 2.05211,6.572097 1.35215,0.441486 2.48698,0.08465 3.32017,-0.557715 l -0.22993,1.213406 2.62918,0.858445 4.54976,-13.934664 z m -5.75592,11.836725 c -0.97655,-0.318851 -1.43802,-1.19689 -0.62863,-3.675833 0.72968,-2.234804 1.7752,-2.890968 2.84565,-2.541458 0.63852,0.208479 0.985,0.674899 1.26402,1.347898 l -1.4103,4.31937 c -0.70863,0.579121 -1.37588,0.776898 -2.07074,0.550023 z"
       inkscape:connector-curvature="0" />
    <path
       id="path9294"
       style="font-style:normal;font-variant:normal;font-weight:bold;font-stretch:normal;font-size:medium;line-height:5;font-family:'Fira Sans';-inkscape-font-specification:'Fira Sans, Bold';font-variant-ligatures:normal;font-variant-caps:normal;font-variant-numeric:normal;font-feature-settings:normal;text-align:start;letter-spacing:0px;word-spacing:0px;writing-mode:lr-tb;text-anchor:start;fill:#ffffff;fill-opacity:1;stroke:none;stroke-width:0.264583"
       d="m 148.17278,25.367613 c 1.47694,-3.060184 0.681,-5.637943 -2.02335,-6.943152 -2.86447,-1.382492 -5.49431,0.11221 -6.85962,2.941101 -1.42543,2.953433 -0.80308,5.754516 2.34606,7.274398 1.5301,0.738474 3.01472,0.753047 4.31833,0.460899 l -0.40082,-2.123824 c -1.0932,0.174339 -1.89809,0.114913 -2.66314,-0.254324 -1.15646,-0.558149 -1.73383,-1.407146 -1.09599,-3.183233 l 5.8357,2.816505 c 0.17297,-0.267494 0.39685,-0.68591 0.54283,-0.98837 z m -2.43143,-2.007057 -3.14914,-1.519882 c 0.96668,-1.639315 1.7838,-1.968836 2.72676,-1.51373 1.12088,0.540975 1.08296,1.619475 0.48249,2.909069 z"
       inkscape:connector-curvature="0" />
    <path
       id="path9296"
       style="font-style:normal;font-variant:normal;font-weight:bold;font-stretch:normal;font-size:medium;line-height:5;font-family:'Fira Sans';-inkscape-font-specification:'Fira Sans, Bold';font-variant-ligatures:normal;font-variant-caps:normal;font-variant-numeric:normal;font-feature-settings:normal;text-align:start;letter-spacing:0px;word-spacing:0px;writing-mode:lr-tb;text-anchor:start;fill:#ffffff;fill-opacity:1;stroke:none;stroke-width:0.264583"
       d="m 169.79741,30.49516 -3.24465,-2.521388 -7.21049,6.155825 4.07504,-8.592358 -3.22906,-2.509265 -9.21174,10.179957 2.49588,1.939529 3.44803,-4.050743 c 1.23823,-1.464642 2.28073,-2.806181 3.40799,-4.482162 l -4.05239,8.88517 2.41788,1.878919 7.49984,-6.206196 c -1.1205,1.280928 -2.3015,2.865101 -3.39935,4.438841 l -3.09788,4.372871 2.51148,1.951651 z"
       inkscape:connector-curvature="0" />
    <path
       id="path9298"
       style="font-style:normal;font-variant:normal;font-weight:bold;font-stretch:normal;font-size:medium;line-height:5;font-family:'Fira Sans';-inkscape-font-specification:'Fira Sans, Bold';font-variant-ligatures:normal;font-variant-caps:normal;font-variant-numeric:normal;font-feature-settings:normal;text-align:start;letter-spacing:0px;word-spacing:0px;writing-mode:lr-tb;text-anchor:start;fill:#ffffff;fill-opacity:1;stroke:none;stroke-width:0.264583"
       d="m 171.49754,47.44899 2.96217,-2.790617 c 1.76867,-1.666243 1.80926,-3.495823 -0.27693,-5.710261 -0.8128,-0.862768 -2.00302,-1.722816 -3.27014,-2.347574 l -1.00778,1.926517 c 0.9768,0.518271 1.82502,1.130537 2.28561,1.619439 0.88054,0.934666 0.94599,1.55154 0.0401,2.404981 l -0.33073,0.311574 -0.73152,-0.776492 c -2.18102,-2.315095 -4.27903,-2.727047 -5.94705,-1.155631 -1.39481,1.314028 -1.47937,3.212174 -0.0434,4.736398 0.85344,0.905907 1.95467,1.469815 3.30345,1.230527 -0.40907,1.063915 -0.12686,1.91086 0.64114,2.870121 l 1.92812,-0.920786 c -0.20925,-0.481407 -0.14257,-0.842782 0.44699,-1.398196 z m -4.07167,-2.650986 c -0.52832,-0.560799 -0.48041,-1.230194 0.12353,-1.799155 0.76211,-0.717974 1.59573,-0.55336 2.57109,0.481962 l 0.52832,0.560799 -1.36605,1.286936 c -0.70315,0.146737 -1.36921,-0.01288 -1.85689,-0.530542 z"
       inkscape:connector-curvature="0" />
    <path
       id="path9300"
       style="font-style:normal;font-variant:normal;font-weight:bold;font-stretch:normal;font-size:medium;line-height:5;font-family:'Fira Sans';-inkscape-font-specification:'Fira Sans, Bold';font-variant-ligatures:normal;font-variant-caps:normal;font-variant-numeric:normal;font-feature-settings:normal;text-align:start;letter-spacing:0px;word-spacing:0px;writing-mode:lr-tb;text-anchor:start;fill:#ffffff;fill-opacity:1;stroke:none;stroke-width:0.264583"
       d="m 176.1613,54.415637 c -0.4552,-0.175664 -0.74864,-0.399501 -0.96334,-0.682975 -0.3936,-0.519703 -0.31289,-1.002123 0.49028,-1.610423 l 3.84266,-2.910299 1.25238,1.6536 1.93511,-1.044294 -1.45515,-1.921327 2.09456,-1.586351 -2.16801,-2.273581 -1.81109,1.371657 -0.89456,-1.181143 -1.73234,1.31202 0.89456,1.181143 -3.87415,2.934154 c -1.96857,1.490932 -2.32811,3.175813 -0.94835,5.030324 0.57252,0.755932 1.46093,1.470868 2.37899,1.766842 z"
       inkscape:connector-curvature="0" />
    <path
       id="path9302"
       style="font-style:normal;font-variant:normal;font-weight:bold;font-stretch:normal;font-size:medium;line-height:5;font-family:'Fira Sans';-inkscape-font-specification:'Fira Sans, Bold';font-variant-ligatures:normal;font-variant-caps:normal;font-variant-numeric:normal;font-feature-settings:normal;text-align:start;letter-spacing:0px;word-spacing:0px;writing-mode:lr-tb;text-anchor:start;fill:#ffffff;fill-opacity:1;stroke:none;stroke-width:0.264583"
       d="m 184.68625,62.516722 c 2.9146,-1.746758 3.66467,-4.338236 2.12103,-6.913936 -1.63505,-2.728208 -4.6537,-2.922855 -7.34802,-1.30812 -2.81294,1.685825 -3.83071,4.368645 -2.03317,7.367979 0.87338,1.457304 2.10621,2.284613 3.35616,2.756185 l 0.83108,-1.995141 c -1.00941,-0.45451 -1.6495,-0.946101 -2.08619,-1.674753 -0.66011,-1.101451 -0.67653,-2.128038 0.83172,-3.262271 l 3.33103,5.558089 c 0.29144,-0.128599 0.70828,-0.355387 0.99636,-0.528032 z m -0.93019,-3.012447 -1.79754,-2.999335 c 1.708,-0.839371 2.57187,-0.666143 3.11011,0.231963 0.6398,1.067559 0.016,1.948136 -1.19396,2.696283 z"
       inkscape:connector-curvature="0" />
    <path
       id="path9304"
       style="font-style:normal;font-variant:normal;font-weight:bold;font-stretch:normal;font-size:medium;line-height:5;font-family:'Fira Sans';-inkscape-font-specification:'Fira Sans, Bold';font-variant-ligatures:normal;font-variant-caps:normal;font-variant-numeric:normal;font-feature-settings:normal;text-align:start;letter-spacing:0px;word-spacing:0px;writing-mode:lr-tb;text-anchor:start;fill:#ffffff;fill-opacity:1;stroke:none;stroke-width:0.264583"
       d="m 195.3222,73.674964 c -0.4952,-1.248777 -1.3846,-1.937442 -2.70049,-2.308217 0.83874,-0.778897 1.06197,-1.823763 0.63231,-2.90726 -0.47335,-1.193683 -1.31874,-1.87855 -2.57226,-2.252807 l 1.05848,-0.653512 -1.00496,-2.534281 -9.75147,3.866918 1.15061,2.901568 6.66626,-2.643486 c 0.97552,0.101957 1.61669,0.379008 1.85701,0.985032 0.17477,0.440744 0.0522,0.935631 -0.97617,1.343441 l -6.62953,2.628922 1.15061,2.901568 6.66626,-2.643486 c 0.97552,0.101957 1.60941,0.360643 1.85701,0.985031 0.17478,0.440745 0.0522,0.935631 -0.97617,1.343442 l -6.62953,2.628922 1.15061,2.901568 7.12537,-2.825545 c 1.8548,-0.735515 2.5232,-2.211941 1.92605,-3.717818 z"
       inkscape:connector-curvature="0" />
    <path
       id="path9306"
       style="font-style:normal;font-variant:normal;font-weight:bold;font-stretch:normal;font-size:medium;line-height:5;font-family:'Fira Sans';-inkscape-font-specification:'Fira Sans, Bold';font-variant-ligatures:normal;font-variant-caps:normal;font-variant-numeric:normal;font-feature-settings:normal;text-align:start;letter-spacing:0px;word-spacing:0px;writing-mode:lr-tb;text-anchor:start;fill:#ffffff;fill-opacity:1;stroke:none;stroke-width:0.264583"
       d="m 202.02531,86.149636 2.01388,-1.696711 -3.47145,-3.646517 -1.37629,1.192489 z m -10.52805,3.911907 3.97477,-0.873616 c 2.37328,-0.521626 3.34756,-2.070751 2.69447,-5.042182 -0.25445,-1.1577 -0.83417,-2.506863 -1.60068,-3.693606 l -1.85401,1.135669 c 0.57208,0.946299 0.98555,1.907231 1.12974,2.563261 0.27566,1.254175 0.0151,1.817126 -1.20051,2.0843 l -0.44379,0.09754 -0.229,-1.04193 c -0.68278,-3.106495 -2.27156,-4.537281 -4.50978,-4.045342 -1.87162,0.411363 -2.91883,1.996747 -2.4693,4.042017 0.26717,1.215585 0.92258,2.264932 2.20284,2.752173 -0.89732,0.702899 -1.09005,1.574571 -0.92359,2.792065 l 2.12733,0.199927 c 0.0676,-0.520543 0.31041,-0.796401 1.10151,-0.970276 z m -2.13268,-4.365536 c -0.16539,-0.752505 0.21944,-1.302311 1.02983,-1.480427 1.02264,-0.224765 1.65344,0.344538 1.95878,1.733778 l 0.1654,0.752505 -1.83303,0.402882 c -0.67872,-0.235139 -1.16831,-0.714117 -1.32098,-1.408738 z"
       inkscape:connector-curvature="0" />
    <path
       id="path9308"
       style="font-style:normal;font-variant:normal;font-weight:bold;font-stretch:normal;font-size:medium;line-height:5;font-family:'Fira Sans';-inkscape-font-specification:'Fira Sans, Bold';font-variant-ligatures:normal;font-variant-caps:normal;font-variant-numeric:normal;font-feature-settings:normal;text-align:start;letter-spacing:0px;word-spacing:0px;writing-mode:lr-tb;text-anchor:start;fill:#ffffff;fill-opacity:1;stroke:none;stroke-width:0.264583"
       d="m 191.92208,98.436002 c -0.30018,-0.384667 -0.43682,-0.727503 -0.47527,-1.081018 -0.0705,-0.648112 0.24672,-1.020435 1.24834,-1.12937 l 4.7921,-0.521177 0.22428,2.062173 2.19668,0.09892 -0.26059,-2.396049 2.61209,-0.284084 -0.691,-3.064632 -2.25857,0.245637 -0.1602,-1.472981 -2.16037,0.234957 0.1602,1.472981 -4.83138,0.52545 c -2.45497,0.266997 -3.62944,1.527437 -3.39917,3.827423 0.10253,0.942707 0.4971,2.012629 1.13245,2.738412 z"
       inkscape:connector-curvature="0" />
    <path
       id="path9310"
       style="font-style:normal;font-variant:normal;font-weight:bold;font-stretch:normal;font-size:medium;line-height:5;font-family:'Fira Sans';-inkscape-font-specification:'Fira Sans, Bold';font-variant-ligatures:normal;font-variant-caps:normal;font-variant-numeric:normal;font-feature-settings:normal;text-align:start;letter-spacing:0px;word-spacing:0px;writing-mode:lr-tb;text-anchor:start;fill:#ffffff;fill-opacity:1;stroke:none;stroke-width:0.264583"
       d="m 205.60327,101.85535 c -0.0338,-1.08603 -0.82727,-1.8124 -1.83432,-1.78105 -1.00704,0.0314 -1.75377,0.80568 -1.71996,1.89171 0.0338,1.08602 0.82788,1.83214 1.83492,1.80079 1.00705,-0.0314 1.75317,-0.82542 1.71936,-1.91145 z m -5.4797,1.75181 -0.0971,-3.11987 -10.48512,0.32644 0.0971,3.11986 z"
       inkscape:connector-curvature="0" />
    <path
       id="path9312"
       style="font-style:normal;font-variant:normal;font-weight:bold;font-stretch:normal;font-size:medium;line-height:5;font-family:'Fira Sans';-inkscape-font-specification:'Fira Sans, Bold';font-variant-ligatures:normal;font-variant-caps:normal;font-variant-numeric:normal;font-feature-settings:normal;text-align:start;letter-spacing:0px;word-spacing:0px;writing-mode:lr-tb;text-anchor:start;fill:#ffffff;fill-opacity:1;stroke:none;stroke-width:0.264583"
       d="m 200.24253,111.52376 c 0.17857,-3.13605 -2.03539,-5.26066 -5.36868,-5.45046 -3.31356,-0.18867 -5.59547,1.66015 -5.77853,4.8751 -0.082,1.43982 0.32737,2.59102 1.04156,3.60128 l 2.01041,-1.25087 c -0.43069,-0.77645 -0.63818,-1.30274 -0.5955,-2.05224 0.0707,-1.24259 0.82797,-2.03055 3.15536,-1.89802 2.34711,0.13364 3.21059,0.95452 3.13422,2.29573 -0.0404,0.71005 -0.31193,1.308 -0.86292,1.94941 l 1.77765,1.44677 c 0.90539,-0.95761 1.40332,-2.05715 1.48643,-3.5167 z"
       inkscape:connector-curvature="0" />
    <path
       id="path9314"
       style="font-style:normal;font-variant:normal;font-weight:bold;font-stretch:normal;font-size:medium;line-height:5;font-family:'Fira Sans';-inkscape-font-specification:'Fira Sans, Bold';font-variant-ligatures:normal;font-variant-caps:normal;font-variant-numeric:normal;font-feature-settings:normal;text-align:start;letter-spacing:0px;word-spacing:0px;writing-mode:lr-tb;text-anchor:start;fill:#ffffff;fill-opacity:1;stroke:none;stroke-width:0.264583"
       d="m 190.58416,124.55076 4.00666,0.71322 c 2.39232,0.42585 3.88507,-0.63279 4.41825,-3.62806 0.20773,-1.16699 0.18818,-2.6353 -0.0661,-4.02499 l -2.14742,0.34012 c 0.1666,1.09316 0.18106,2.13918 0.0634,2.80047 -0.22505,1.26424 -0.68115,1.6847 -1.90649,1.46658 l -0.44734,-0.0796 0.18696,-1.05029 c 0.55742,-3.13142 -0.36325,-5.06112 -2.61942,-5.46274 -1.88664,-0.33584 -3.46064,0.72841 -3.82764,2.79009 -0.21812,1.22534 -0.0139,2.44558 0.98258,3.38548 -1.09794,0.30621 -1.60944,1.03787 -1.92135,2.22645 l 1.88908,0.99845 c 0.2616,-0.45508 0.59144,-0.6171 1.38888,-0.47515 z m -0.30062,-4.84931 c 0.13503,-0.75854 0.7009,-1.11933 1.51779,-0.97392 1.03084,0.1835 1.39591,0.9508 1.14663,2.35118 l -0.13502,0.75855 -1.84774,-0.32892 c -0.53716,-0.47687 -0.8063,-1.1067 -0.68166,-1.80689 z"
       inkscape:connector-curvature="0" />
    <path
       id="path9316"
       style="font-style:normal;font-variant:normal;font-weight:bold;font-stretch:normal;font-size:medium;line-height:5;font-family:'Fira Sans';-inkscape-font-specification:'Fira Sans, Bold';font-variant-ligatures:normal;font-variant-caps:normal;font-variant-numeric:normal;font-feature-settings:normal;text-align:start;letter-spacing:0px;word-spacing:0px;writing-mode:lr-tb;text-anchor:start;fill:#ffffff;fill-opacity:1;stroke:none;stroke-width:0.264583"
       d="m 196.24354,133.14433 c 0.77221,-2.53211 -0.0911,-4.50967 -1.8107,-5.03408 -1.5495,-0.47254 -2.86956,0.19888 -4.04154,2.01011 -1.06343,1.65846 -1.3635,1.89741 -2.04377,1.68995 -0.60468,-0.18441 -0.77769,-0.83613 -0.50108,-1.74316 0.29966,-0.98261 0.97886,-1.78751 1.79516,-2.36472 l -1.18135,-1.95062 c -1.1878,0.71176 -2.24198,2.00127 -2.77215,3.73974 -0.76069,2.49432 -0.13175,4.83412 1.94685,5.46802 1.79516,0.54746 2.9666,-0.31386 4.13858,-2.12509 1.07656,-1.6338 1.38399,-1.8292 1.91309,-1.66784 0.45352,0.13831 0.63484,0.62733 0.38704,1.43988 -0.26509,0.86923 -0.80209,1.61423 -1.52967,2.23915 l 1.34753,1.60887 c 1.03823,-0.69541 1.90827,-1.85519 2.35201,-3.31021 z"
       inkscape:connector-curvature="0" />
    <g
       aria-label="Yucatán"
       id="text4827"
       style="font-weight:bold;font-size:28.2222px;line-height:5;font-family:'Fira Sans';-inkscape-font-specification:'Fira Sans Bold';letter-spacing:0px;word-spacing:0px;display:inline;fill:#ffffff;stroke-width:1.85208;stroke-linejoin:round">
      <path
         d="m 72.785284,188.29653 -7.565424,12.58148 v 7.9375 h -5.291662 v -7.68945 L 52.23875,188.29653 h 6.008242 l 4.43728,7.9375 4.285695,-7.9375 z"
         style="letter-spacing:0.510646px"
         id="path477" />
      <path
         d="m 91.182853,208.81551 h -4.960934 v -1.70877 q -1.378037,1.04731 -2.521808,1.59852 -1.143771,0.53744 -2.728513,0.53744 -2.563149,0 -3.954967,-1.4745 -1.378037,-1.4745 -1.378037,-4.3546 v -10.07345 h 4.988494 v 7.67567 q 0,1.17133 0.0689,1.95681 0.08268,0.7717 0.35829,1.28157 0.261827,0.50988 0.785481,0.74414 0.537435,0.23427 1.48828,0.23427 0.633897,0 1.405598,-0.23427 0.771701,-0.23426 1.48828,-0.68902 v -10.96917 h 4.960934 z"
         style="letter-spacing:0.510646px"
         id="path479" />
      <path
         d="m 104.44034,209.22892 q -2.02571,0 -3.70692,-0.48232 -1.667421,-0.48231 -2.907655,-1.48828 -1.226453,-1.00596 -1.901691,-2.53558 -0.675238,-1.52963 -0.675238,-3.5829 0,-2.16352 0.716579,-3.73448 0.73036,-1.57096 2.025715,-2.60449 1.254014,-0.97841 2.89388,-1.43316 1.63986,-0.45475 3.40375,-0.45475 1.58474,0 2.92144,0.34451 1.33669,0.34451 2.49425,0.89572 v 4.23057 h -0.7028 q -0.28939,-0.24804 -0.7028,-0.57877 -0.39963,-0.33073 -0.99219,-0.64768 -0.56499,-0.30317 -1.24023,-0.49609 -0.67524,-0.20671 -1.57096,-0.20671 -1.98438,0 -3.05925,1.2678 -1.06109,1.25401 -1.06109,3.41753 0,2.23242 1.08865,3.38997 1.10243,1.15755 3.11437,1.15755 0.93706,0 1.6812,-0.2067 0.75792,-0.22049 1.25402,-0.50988 0.46853,-0.27561 0.82682,-0.57877 0.35829,-0.30317 0.66146,-0.59256 h 0.7028 v 4.23057 q -1.17134,0.55122 -2.45291,0.86817 -1.26779,0.33073 -2.8112,0.33073 z"
         style="letter-spacing:0.510646px"
         id="path481" />
      <path
         d="m 122.86547,204.77786 v -3.22461 q -1.00597,0.0827 -2.1773,0.23427 -1.17133,0.1378 -1.77767,0.33073 -0.74414,0.23426 -1.14377,0.68901 -0.38585,0.44098 -0.38585,1.17134 0,0.48231 0.0827,0.78548 0.0827,0.30316 0.41341,0.57877 0.31695,0.27561 0.75792,0.41341 0.44098,0.12403 1.37804,0.12403 0.74414,0 1.50206,-0.30317 0.7717,-0.30317 1.35048,-0.79926 z m 0,2.39778 q -0.39963,0.30317 -0.99219,0.73036 -0.59255,0.42719 -1.11621,0.67524 -0.73036,0.33073 -1.51584,0.48231 -0.78548,0.16537 -1.72255,0.16537 -2.20485,0 -3.69313,-1.36426 -1.48829,-1.36426 -1.48829,-3.48643 0,-1.69499 0.75793,-2.76986 0.75792,-1.07487 2.14973,-1.69498 1.37804,-0.62012 3.41754,-0.88195 2.03949,-0.26182 4.23057,-0.38585 v -0.0827 q 0,-1.28157 -1.04731,-1.76389 -1.04731,-0.49609 -3.0868,-0.49609 -1.22646,0 -2.61827,0.44097 -1.39182,0.42719 -1.99816,0.66146 h -0.45475 v -3.73448 q 0.78548,-0.20671 2.54937,-0.48232 1.77767,-0.28938 3.55534,-0.28938 4.23057,0 6.1047,1.30913 1.88791,1.29536 1.88791,4.07899 v 10.52821 h -4.91959 z"
         style="letter-spacing:0.510646px"
         id="path483" />
      <path
         d="m 142.75132,208.6777 q -0.79926,0.20671 -1.69499,0.31695 -0.89572,0.12402 -2.19108,0.12402 -2.89388,0 -4.31325,-1.17133 -1.4056,-1.17133 -1.4056,-4.01009 v -7.23469 h -2.0395 v -3.36241 h 2.0395 v -4.4235 h 4.96093 v 4.4235 h 4.64399 v 3.36241 h -4.64399 v 5.48459 q 0,0.81304 0.0138,1.41938 0.0138,0.60633 0.22049,1.08864 0.19292,0.48232 0.67524,0.77171 0.49609,0.2756 1.43315,0.2756 0.38586,0 1.00597,-0.16536 0.6339,-0.16537 0.88195,-0.30317 h 0.41341 z"
         style="letter-spacing:0.510646px"
         id="path485" />
      <path
         d="m 155.59539,204.77786 v -3.22461 q -1.00597,0.0827 -2.1773,0.23427 -1.17133,0.1378 -1.77766,0.33073 -0.74414,0.23426 -1.14378,0.68901 -0.38585,0.44098 -0.38585,1.17134 0,0.48231 0.0827,0.78548 0.0827,0.30316 0.41341,0.57877 0.31695,0.27561 0.75792,0.41341 0.44097,0.12403 1.37804,0.12403 0.74414,0 1.50206,-0.30317 0.7717,-0.30317 1.35047,-0.79926 z m 0,2.39778 q -0.39963,0.30317 -0.99218,0.73036 -0.59256,0.42719 -1.11621,0.67524 -0.73036,0.33073 -1.51585,0.48231 -0.78548,0.16537 -1.72254,0.16537 -2.20486,0 -3.69314,-1.36426 -1.48828,-1.36426 -1.48828,-3.48643 0,-1.69499 0.75792,-2.76986 0.75792,-1.07487 2.14974,-1.69498 1.37803,-0.62012 3.41753,-0.88195 2.03949,-0.26182 4.23057,-0.38585 v -0.0827 q 0,-1.28157 -1.04731,-1.76389 -1.0473,-0.49609 -3.0868,-0.49609 -1.22645,0 -2.61827,0.44097 -1.39182,0.42719 -1.99815,0.66146 h -0.45476 v -3.73448 q 0.78549,-0.20671 2.54937,-0.48232 1.77767,-0.28938 3.55534,-0.28938 4.23057,0 6.1047,1.30913 1.88791,1.29536 1.88791,4.07899 v 10.52821 h -4.91959 z M 158.255,185.7196 v 0.27561 l -4.85069,5.14008 h -3.38997 l 3.40375,-5.41569 z"
         style="letter-spacing:0.510646px"
         id="path487" />
      <path
         d="m 181.1312,208.81551 h -4.9885 v -7.67567 q 0,-0.93707 -0.0965,-1.86035 -0.0965,-0.93707 -0.33073,-1.37804 -0.27561,-0.50987 -0.81304,-0.74414 -0.52366,-0.23426 -1.4745,-0.23426 -0.67524,0 -1.37804,0.22048 -0.68902,0.22049 -1.50206,0.7028 v 10.96918 h -4.96093 v -15.47536 h 4.96093 v 1.70877 q 1.32292,-1.03353 2.53559,-1.58475 1.22645,-0.55121 2.71473,-0.55121 2.50803,0 3.91363,1.46072 1.41938,1.46072 1.41938,4.36837 z"
         style="letter-spacing:0.510646px"
         id="path489" />
    </g>
    <path
       style="display:inline;fill:#ffffff;stroke:#000000;stroke-width:3;stroke-miterlimit:4;stroke-dasharray:none;stroke-opacity:1"
       d="m 140.03937,64.760666 c -0.92511,0.0015 -1.97689,0.128751 -3.14761,0.374655 h -0.1111 l -0.10956,0.01188 c -1.02452,0.02833 -1.75022,0.464883 -2.24017,1.140497 -3.27983,0.930428 -6.87943,0.516223 -10.09758,1.247987 -1.30652,0.748749 -3.13479,0.773263 -4.62349,1.024226 -0.14438,0.0162 -0.29977,0.04631 -0.46973,0.09354 -0.82905,0.184039 -1.50952,0.48173 -1.85829,1.092441 -4.10668,2.576176 -8.83526,4.702008 -13.82189,5.176943 -0.35669,-0.141388 -0.82333,-0.128783 -1.43868,0.09198 -0.0272,7.99e-4 -0.0544,8.55e-4 -0.0816,0.0016 -2.02395,-0.35065 -3.374971,-0.111652 -4.266919,0.529682 -0.205986,0.0086 -0.403111,0.01737 -0.646472,0.02687 -1.463333,-0.267782 -2.48852,-0.09693 -3.196704,0.376206 -0.497239,-0.0059 -0.988546,0.0064 -1.457793,0.04806 -0.177022,-0.0042 -0.380338,0.01799 -0.620117,0.07751 -0.342278,0.05661 -0.663112,0.136496 -0.954463,0.24598 -2.07418,0.206772 -5.134062,-0.05427 -7.329268,0.558105 -0.301207,-0.06144 -0.660651,-0.01227 -1.088305,0.176733 -2.005822,-0.05911 -3.948465,0.02998 -5.484421,0.509014 -0.352208,0.02854 -0.822434,0.127047 -1.44539,0.266133 -6.731876,0.201084 -12.925176,1.891864 -18.851562,5.135087 0.0606,0.09364 0.124566,0.180998 0.187068,0.270785 -3.03984,1.201504 -7.053752,1.403157 -9.174117,3.494876 -6.675607,0.543798 -9.372555,7.310516 -10.762649,12.881901 0.428066,1.200793 1.107387,2.566563 2.177645,3.701583 -0.0084,0.10364 -0.01201,0.2115 -0.0078,0.3266 -0.608639,2.50886 -0.779576,4.59804 -0.403076,6.16293 l -0.0057,0.11524 -0.04444,0.9033 c -0.90566,6.49366 6.271641,4.8626 8.703863,8.81445 3.820912,0.81816 6.021276,2.04985 8.397936,2.19366 1.549813,2.67689 5.680025,6.07942 6.575308,8.57209 0.793176,2.13315 1.561127,3.08487 2.357996,3.34295 1.377175,3.24316 6.294922,6.69446 7.436239,9.92342 1.503439,2.38577 2.974443,4.62712 4.215246,5.84254 0.454584,1.29605 1.30687,2.49445 2.757456,3.54655 2.936767,6.63154 6.922027,7.18589 11.746569,2.88872 0.727612,-0.19718 1.737825,-0.9227 3.135725,-2.37195 2.478672,-1.38202 4.961284,-2.76194 6.620785,-4.58267 0.17564,-0.0845 0.36204,-0.18889 0.56379,-0.32039 5.89268,-3.66908 11.78537,-7.33874 17.67851,-11.00708 1.44126,-0.23179 3.19648,-1.14757 4.54391,-2.35025 0.88965,-0.25825 2.15537,-1.14633 3.92224,-2.87579 2.43834,-0.89398 4.25616,-2.12202 5.45393,-3.68401 2.17532,-1.23902 4.64529,-2.36651 6.03012,-3.90519 1.71393,-0.35594 3.85717,-1.89475 6.22649,-4.05557 2.30686,-0.67973 3.44164,-1.54764 3.81579,-2.53783 2.71114,-1.1653 5.84412,-4.78148 8.49974,-5.62084 2.92752,-5.23991 5.8567,-10.47917 8.78448,-15.718938 0.9366,-0.750406 1.34166,-2.235266 0.81855,-5.072044 -0.0196,-6.706383 -0.037,-13.412803 -0.0579,-20.119184 -7.36414,-0.908867 -14.16627,-4.064386 -21.09019,-6.425964 -1.20785,0.18773 -3.32212,-0.671801 -4.46226,-0.444418 -0.40068,-0.06407 -0.83433,-0.09534 -1.30018,-0.09457 z"
       id="path5636"
       inkscape:connector-curvature="0" />
    <path
       sodipodi:nodetypes="cccc"
       inkscape:connector-curvature="0"
       id="path1305"
       d="m 138.28834,80.476018 -8.20791,3.321004 1.76851,20.866158 z"
       style="display:inline;vector-effect:none;fill:#ffffff;fill-opacity:1;stroke:#000000;stroke-width:1.05833;stroke-linecap:round;stroke-linejoin:round;stroke-miterlimit:4;stroke-dasharray:none;stroke-dashoffset:0;stroke-opacity:1" />
    <path
       sodipodi:nodetypes="cccc"
       inkscape:connector-curvature="0"
       id="path1307"
       d="m 127.89416,135.06146 -6.80733,-1.85917 0.39582,-46.286343 z"
       style="display:inline;vector-effect:none;fill:#ffffff;fill-opacity:1;stroke:#000000;stroke-width:1.05833;stroke-linecap:round;stroke-linejoin:round;stroke-miterlimit:4;stroke-dasharray:none;stroke-dashoffset:0;stroke-opacity:1" />
    <path
       sodipodi:nodetypes="cccccccccccccc"
       inkscape:connector-curvature="0"
       id="path1315"
       d="m 106.09083,65.241298 -0.0884,72.199732 15.16964,-1.59406 0.31058,-48.931023 6.41151,48.145513 8.36175,-0.91214 6.4301,-38.752239 -0.61804,38.313979 8.22171,-0.80568 0.092,-46.93254 -12.09332,-5.496822 -6.4394,24.187162 -2.6891,-28.435801 z"
       style="display:inline;vector-effect:none;fill:#ffffff;fill-opacity:1;stroke:#000000;stroke-width:3;stroke-linecap:round;stroke-linejoin:round;stroke-miterlimit:4;stroke-dasharray:none;stroke-dashoffset:0;stroke-opacity:1" />
    <path
       sodipodi:nodetypes="cccc"
       inkscape:connector-curvature="0"
       id="path1321"
       d="m 142.686,95.397084 -0.61803,38.313976 -5.45987,-1.85552 z"
       style="display:inline;vector-effect:none;fill:#ffffff;fill-opacity:1;stroke:#000000;stroke-width:1.05833;stroke-linecap:round;stroke-linejoin:round;stroke-miterlimit:4;stroke-dasharray:none;stroke-dashoffset:0;stroke-opacity:1" />
    <path
       sodipodi:nodetypes="ccccccscccccccccc"
       inkscape:connector-curvature="0"
       id="path1371"
       d="m 103.08504,137.1272 c -17.15014,9.93607 -32.221474,11.88993 -38.051425,4.93304 -1.858155,-2.23672 -2.681287,-5.29959 -2.422592,-9.01444 l -1.28261,-0.11162 v -21.64571 c -13.159892,17.93701 -17.041471,34.09348 -10.17612,42.35659 10.614112,12.71825 43.103805,3.0947 72.567657,-21.49481 29.46349,-24.58922 44.74402,-54.83263 34.13029,-67.550921 -3.02986,-3.630824 -8.00557,-5.550459 -14.52108,-5.602243 -10.12538,-0.06231 -16.66075,1.457685 -30.53007,9.552745 l 10.08392,4.80078 c 4.60001,-1.522047 6.64915,-1.335505 10.3434,-1.31091 4.8202,0.03816 8.50134,1.458093 10.74301,4.143934 7.85208,9.409136 -3.45277,31.783525 -25.25013,49.974735 -4.0865,3.40616 -8.37572,6.51725 -12.71447,9.22217 m 0,0 -2.91978,1.74666"
       style="display:inline;vector-effect:none;fill:#ffffff;fill-opacity:1;stroke:#000000;stroke-width:3;stroke-linecap:butt;stroke-linejoin:miter;stroke-miterlimit:4;stroke-dasharray:none;stroke-dashoffset:0;stroke-opacity:1" />
    <path
       style="display:inline;vector-effect:none;fill:#7c916f;fill-opacity:1;stroke:#000000;stroke-width:1.05833;stroke-linecap:round;stroke-linejoin:round;stroke-miterlimit:4;stroke-dasharray:none;stroke-dashoffset:0;stroke-opacity:1"
       d="M 83.994967,135.27001 90.653511,133.7985 90.384802,86.758337 Z"
       id="path1927"
       inkscape:connector-curvature="0"
       sodipodi:nodetypes="cccc" />
    <path
       style="display:inline;vector-effect:none;fill:#7c916f;fill-opacity:1;stroke:#000000;stroke-width:1.05833;stroke-linecap:round;stroke-linejoin:round;stroke-miterlimit:4;stroke-dasharray:none;stroke-dashoffset:0;stroke-opacity:1"
       d="m 70.28108,132.93409 5.65417,-1.72767 -5.65417,-36.909167 z"
       id="path1909"
       inkscape:connector-curvature="0" />
    <path
       inkscape:connector-curvature="0"
       id="path1925"
       d="M 70.457803,133.72943 76.156178,132.79711 70.28108,94.297253 Z"
       style="display:inline;vector-effect:none;fill:#7c916f;fill-opacity:1;stroke:#000000;stroke-width:1.05833;stroke-linecap:round;stroke-linejoin:round;stroke-miterlimit:4;stroke-dasharray:none;stroke-dashoffset:0;stroke-opacity:1"
       sodipodi:nodetypes="cccc" />
    <path
       style="display:inline;vector-effect:none;fill:#7c916f;fill-opacity:1;stroke:#000000;stroke-width:1.05833;stroke-linecap:round;stroke-linejoin:round;stroke-miterlimit:4;stroke-dasharray:none;stroke-dashoffset:0;stroke-opacity:1"
       d="M 76.092312,79.690624 82.325316,82.353263 79.86176,104.82028 76.092312,79.690624"
       id="path1977"
       inkscape:connector-curvature="0" />
    <path
       sodipodi:nodetypes="ccccccccccccccc"
       inkscape:connector-curvature="0"
       style="display:inline;fill:#ffffff;stroke:#000000;stroke-width:3;stroke-linecap:round;stroke-linejoin:round;stroke-miterlimit:4;stroke-dasharray:none;stroke-opacity:1"
       d="M 106.09061,65.24115 83.16023,77.020795 79.861725,104.82065 76.092445,79.690914 61.328488,86.601603 v 46.332577 l 9.12916,0.79529 -0.176734,-39.432212 6.341732,40.159312 7.372159,0.8139 6.389791,-48.51177 v 49.00373 l 12.700444,1.36477 2.91978,-1.74666 z"
       id="path1876-6" />
  </g>
</svg>
