<?xml version="1.0" encoding="UTF-8" standalone="no"?>
<!-- Created with Inkscape (http://www.inkscape.org/) -->

<svg
   width="1.657567in"
   height="0.58364564in"
   viewBox="0 0 42.102202 14.824599"
   version="1.1"
   id="svg5"
   inkscape:version="1.2.2 (732a01da63, 2022-12-09)"
   sodipodi:docname="botonomm2024.svg"
   xmlns:inkscape="http://www.inkscape.org/namespaces/inkscape"
   xmlns:sodipodi="http://sodipodi.sourceforge.net/DTD/sodipodi-0.dtd"
   xmlns="http://www.w3.org/2000/svg"
   xmlns:svg="http://www.w3.org/2000/svg">
  <sodipodi:namedview
     id="namedview7"
     pagecolor="#ffffff"
     bordercolor="#111111"
     borderopacity="1"
     inkscape:showpageshadow="0"
     inkscape:pageopacity="0"
     inkscape:pagecheckerboard="1"
     inkscape:deskcolor="#d1d1d1"
     inkscape:document-units="mm"
     showgrid="true"
     inkscape:zoom="0.9618732"
     inkscape:cx="300.4554"
     inkscape:cy="117.4791"
     inkscape:window-width="1600"
     inkscape:window-height="829"
     inkscape:window-x="-8"
     inkscape:window-y="-8"
     inkscape:window-maximized="1"
     inkscape:current-layer="layer1">
    <inkscape:grid
       type="xygrid"
       id="grid61"
       spacingx="1.0583333"
       spacingy="1.0583333"
       originx="-20.347073"
       originy="-15.418583" />
  </sodipodi:namedview>
  <defs
     id="defs2" />
  <g
     inkscape:label="Capa 1"
     inkscape:groupmode="layer"
     id="layer1"
     transform="translate(-20.347073,-15.418584)">
    <g
       id="g1955"
       transform="matrix(0.71198654,0,0,0.66555862,5.8519812,5.1640687)"
       inkscape:export-filename="\\wsl.localhost\Arch\home\pi\ommyucweb\static\temp\botonomm2024.png"
       inkscape:export-xdpi="90"
       inkscape:export-ydpi="90">
      <path
         id="rect284"
         style="opacity:0.999;fill:#80b3ff;stroke:#000000;stroke-width:0.981727;stop-color:#000000"
         d="m 26.680113,15.898245 h 46.49052 c 3.230147,0 5.83059,2.600443 5.83059,5.83059 v 9.631013 c 0,3.230146 -2.600443,5.830589 -5.83059,5.830589 h -46.49052 c -3.230146,0 -5.830589,-2.600443 -5.830589,-5.830589 v -9.631013 c 0,-3.230147 2.600443,-5.83059 5.830589,-5.83059 z" />
      <g
         aria-label="Más información
y acceso"
         id="text288"
         style="font-weight:bold;font-size:6.35px;line-height:129.609%;font-family:'Segoe UI';-inkscape-font-specification:'Segoe UI Bold';text-align:center;letter-spacing:0px;word-spacing:0px;text-anchor:middle;white-space:pre;opacity:0.999;stroke:#1a1a1a;stroke-width:0.25;stop-color:#000000"
         inkscape:export-filename="botonomm2024.png"
         inkscape:export-xdpi="90"
         inkscape:export-ydpi="90">
        <path
           d="m 30.736071,24.481312 h -0.989087 v -2.660303 q 0,-0.430981 0.03721,-0.95188 h -0.02481 q -0.07751,0.409278 -0.139526,0.589112 l -1.041797,3.023071 h -0.818555 l -1.0604,-2.992066 Q 26.6557,21.368324 26.559581,20.869129 h -0.02791 q 0.04031,0.657324 0.04031,1.153418 v 2.458765 H 25.66971 v -4.44624 h 1.466577 l 0.908472,2.635498 q 0.10852,0.316259 0.15813,0.63562 h 0.0186 q 0.08372,-0.36897 0.176734,-0.641822 L 29.3067,20.035072 h 1.429371 z"
           id="path1888" />
        <path
           d="m 34.292443,24.481312 h -0.927076 v -0.455786 h -0.0124 q -0.31936,0.5333 -0.945679,0.5333 -0.461987,0 -0.728637,-0.260449 -0.26355,-0.26355 -0.26355,-0.700732 0,-0.923975 1.094507,-1.066602 l 0.861963,-0.114721 q 0,-0.520899 -0.564307,-0.520899 -0.567407,0 -1.079004,0.337964 v -0.737939 q 0.204639,-0.10542 0.558106,-0.186036 0.356567,-0.08061 0.648022,-0.08061 1.358057,0 1.358057,1.354956 z m -0.920874,-1.289844 v -0.21394 l -0.576709,0.07441 q -0.477491,0.06201 -0.477491,0.430981 0,0.167432 0.114722,0.275952 0.117822,0.10542 0.31626,0.10542 0.275952,0 0.449585,-0.189136 0.173633,-0.192236 0.173633,-0.483691 z m 0.629419,-3.38894 -0.970484,1.001489 h -0.706933 l 0.806152,-1.001489 z"
           id="path1890" />
        <path
           d="m 34.85985,24.397596 v -0.79375 q 0.241845,0.145728 0.48059,0.217041 0.241846,0.07131 0.455786,0.07131 0.26045,0 0.409278,-0.07131 0.151929,-0.07131 0.151929,-0.217041 0,-0.09302 -0.06821,-0.155029 -0.06821,-0.06201 -0.176734,-0.108521 -0.10542,-0.04651 -0.232544,-0.08372 -0.127124,-0.03721 -0.244946,-0.08371 -0.189136,-0.07131 -0.334863,-0.151929 -0.142627,-0.08372 -0.241846,-0.192236 -0.09612,-0.108521 -0.148828,-0.251148 -0.04961,-0.142627 -0.04961,-0.337964 0,-0.26665 0.114721,-0.458887 0.117822,-0.192236 0.310059,-0.313159 0.195337,-0.124023 0.443384,-0.179834 0.251147,-0.05891 0.520898,-0.05891 0.21084,0 0.427881,0.03411 0.217041,0.03101 0.427881,0.09302 v 0.756543 q -0.186035,-0.10852 -0.399976,-0.16123 -0.21084,-0.05581 -0.415478,-0.05581 -0.09612,0 -0.182935,0.0186 -0.08372,0.0155 -0.148828,0.04961 -0.06511,0.03101 -0.102319,0.08372 -0.03721,0.04961 -0.03721,0.114722 0,0.08682 0.05581,0.148828 0.05581,0.06201 0.145728,0.10852 0.08992,0.04341 0.198437,0.08061 0.111621,0.03411 0.220142,0.07131 0.195337,0.06821 0.353467,0.148828 0.158129,0.08061 0.269751,0.189136 0.114721,0.10852 0.173632,0.254248 0.06201,0.145727 0.06201,0.347265 0,0.282154 -0.124023,0.483692 -0.120923,0.198437 -0.325562,0.325561 -0.201538,0.124024 -0.468188,0.179834 -0.26355,0.05891 -0.548804,0.05891 -0.523999,0 -0.970483,-0.16123 z"
           id="path1892" />
        <path
           d="m 40.109142,20.804017 q -0.248047,0 -0.406176,-0.145728 -0.15813,-0.148828 -0.15813,-0.362768 0,-0.220142 0.15813,-0.359668 0.158129,-0.139526 0.406176,-0.139526 0.251148,0 0.406177,0.139526 0.15813,0.139526 0.15813,0.359668 0,0.223242 -0.15813,0.365869 -0.155029,0.142627 -0.406177,0.142627 z m 0.483692,3.677295 h -0.979785 v -3.175 h 0.979785 z"
           id="path1894" />
        <path
           d="m 44.484069,24.481312 h -0.976685 v -1.764234 q 0,-0.737939 -0.5271,-0.737939 -0.254248,0 -0.418579,0.195337 -0.164331,0.195337 -0.164331,0.496094 v 1.810742 h -0.979785 v -3.175 h 0.979785 v 0.502295 h 0.0124 q 0.350366,-0.57981 1.020092,-0.57981 1.0542,0 1.0542,1.308447 z"
           id="path1896" />
        <path
           d="m 47.330406,20.531165 q -0.189136,-0.07441 -0.362769,-0.07441 -0.471289,0 -0.471289,0.511597 v 0.337964 h 0.725537 v 0.722436 h -0.725537 v 2.452564 h -0.976684 v -2.452564 h -0.533301 v -0.722436 h 0.533301 v -0.393775 q 0,-0.542602 0.353466,-0.874365 0.353467,-0.331762 0.961182,-0.331762 0.297656,0 0.496094,0.06201 z"
           id="path1898" />
        <path
           d="m 49.20626,24.558826 q -0.79375,0 -1.249536,-0.443383 -0.452685,-0.446485 -0.452685,-1.209229 0,-0.787549 0.471289,-1.230932 0.471289,-0.446485 1.27434,-0.446485 0.79065,0 1.240235,0.446485 0.449585,0.443383 0.449585,1.175122 0,0.790649 -0.465088,1.249536 -0.461987,0.458886 -1.26814,0.458886 z m 0.02481,-2.579687 q -0.347266,0 -0.539502,0.238745 -0.192236,0.238745 -0.192236,0.675928 0,0.914673 0.737939,0.914673 0.703833,0 0.703833,-0.939478 0,-0.889868 -0.710034,-0.889868 z"
           id="path1900" />
        <path
           d="m 53.646299,22.189979 q -0.176733,-0.09612 -0.412378,-0.09612 -0.31936,0 -0.499194,0.235644 -0.179834,0.232544 -0.179834,0.63562 v 1.516187 h -0.979785 v -3.175 h 0.979785 v 0.589111 h 0.0124 q 0.232544,-0.644922 0.837158,-0.644922 0.15503,0 0.241846,0.03721 z"
           id="path1902" />
        <path
           d="M 59.162242,24.481312 H 58.185557 V 22.67057 q 0,-0.691431 -0.508496,-0.691431 -0.241845,0 -0.393774,0.207739 -0.151929,0.207739 -0.151929,0.517798 v 1.776636 h -0.979785 v -1.829346 q 0,-0.672827 -0.499194,-0.672827 -0.251148,0 -0.403076,0.198437 -0.148828,0.198438 -0.148828,0.539502 v 1.764234 h -0.979786 v -3.175 h 0.979786 v 0.496094 h 0.0124 q 0.151929,-0.254248 0.42478,-0.412378 0.275952,-0.161231 0.601514,-0.161231 0.672827,0 0.920874,0.592212 0.362768,-0.592212 1.066601,-0.592212 1.035596,0 1.035596,1.277442 z"
           id="path1904" />
        <path
           d="m 62.579087,24.481312 h -0.927076 v -0.455786 h -0.0124 q -0.31936,0.5333 -0.945679,0.5333 -0.461987,0 -0.728637,-0.260449 -0.26355,-0.26355 -0.26355,-0.700732 0,-0.923975 1.094507,-1.066602 l 0.861963,-0.114721 q 0,-0.520899 -0.564307,-0.520899 -0.567407,0 -1.079004,0.337964 v -0.737939 q 0.204639,-0.10542 0.558106,-0.186036 0.356567,-0.08061 0.648022,-0.08061 1.358057,0 1.358057,1.354956 z m -0.920874,-1.289844 v -0.21394 l -0.576709,0.07441 q -0.477491,0.06201 -0.477491,0.430981 0,0.167432 0.114722,0.275952 0.117822,0.10542 0.31626,0.10542 0.275952,0 0.449585,-0.189136 0.173633,-0.192236 0.173633,-0.483691 z"
           id="path1906" />
        <path
           d="m 65.760289,24.36659 q -0.331762,0.192236 -0.958081,0.192236 -0.731738,0 -1.184424,-0.443383 -0.452685,-0.443384 -0.452685,-1.144117 0,-0.809252 0.483691,-1.27434 0.486792,-0.468189 1.299146,-0.468189 0.561206,0 0.812353,0.148828 v 0.830957 q -0.306958,-0.229443 -0.685229,-0.229443 -0.42168,0 -0.669727,0.248047 -0.244946,0.244946 -0.244946,0.679028 0,0.42168 0.235645,0.663526 0.235644,0.238745 0.648022,0.238745 0.365869,0 0.716235,-0.229444 z"
           id="path1908" />
        <path
           d="m 66.898203,20.804017 q -0.248047,0 -0.406177,-0.145728 -0.15813,-0.148828 -0.15813,-0.362768 0,-0.220142 0.15813,-0.359668 0.15813,-0.139526 0.406177,-0.139526 0.251147,0 0.406177,0.139526 0.15813,0.139526 0.15813,0.359668 0,0.223242 -0.15813,0.365869 -0.15503,0.142627 -0.406177,0.142627 z m 0.483691,3.677295 h -0.979785 v -3.175 h 0.979785 z"
           id="path1910" />
        <path
           d="m 69.719738,24.558826 q -0.79375,0 -1.249537,-0.443383 -0.452685,-0.446485 -0.452685,-1.209229 0,-0.787549 0.471289,-1.230932 0.471289,-0.446485 1.274341,-0.446485 0.790649,0 1.240234,0.446485 0.449585,0.443383 0.449585,1.175122 0,0.790649 -0.465088,1.249536 -0.461987,0.458886 -1.268139,0.458886 z m 0.0248,-2.579687 q -0.347265,0 -0.539502,0.238745 -0.192236,0.238745 -0.192236,0.675928 0,0.914673 0.737939,0.914673 0.703833,0 0.703833,-0.939478 0,-0.889868 -0.710034,-0.889868 z m 1.051099,-2.176611 -0.970483,1.001489 H 69.11822 l 0.806152,-1.001489 z"
           id="path1912" />
        <path
           d="M 75.151965,24.481312 H 74.17528 v -1.764234 q 0,-0.737939 -0.527099,-0.737939 -0.254248,0 -0.418579,0.195337 -0.164331,0.195337 -0.164331,0.496094 v 1.810742 h -0.979786 v -3.175 h 0.979786 v 0.502295 h 0.0124 q 0.350366,-0.57981 1.020093,-0.57981 1.054199,0 1.054199,1.308447 z"
           id="path1914" />
        <path
           d="m 41.377281,29.536482 -1.289843,3.429248 q -0.465088,1.237134 -1.401465,1.237134 -0.356568,0 -0.586011,-0.08062 v -0.781347 q 0.195337,0.114721 0.42478,0.114721 0.378272,0 0.5271,-0.356567 l 0.167432,-0.393774 -1.289844,-3.168799 h 1.085205 l 0.592212,1.931665 q 0.05581,0.179834 0.08682,0.42478 h 0.0124 q 0.0279,-0.179834 0.102319,-0.418579 l 0.598413,-1.937866 z"
           id="path1916" />
        <path
           d="M 46.164586,32.711482 H 45.23751 v -0.455786 h -0.0124 q -0.31936,0.5333 -0.945679,0.5333 -0.461987,0 -0.728637,-0.260449 -0.26355,-0.26355 -0.26355,-0.700732 0,-0.923975 1.094507,-1.066602 l 0.861963,-0.114721 q 0,-0.520899 -0.564307,-0.520899 -0.567407,0 -1.079004,0.337964 v -0.73794 q 0.204639,-0.105419 0.558106,-0.186035 0.356567,-0.08061 0.648022,-0.08061 1.358057,0 1.358057,1.354956 z m -0.920874,-1.289844 v -0.21394 l -0.576709,0.07441 q -0.477491,0.06201 -0.477491,0.430981 0,0.167432 0.114722,0.275952 0.117822,0.10542 0.31626,0.10542 0.275952,0 0.449585,-0.189136 0.173633,-0.192236 0.173633,-0.483691 z"
           id="path1918" />
        <path
           d="m 49.345786,32.59676 q -0.331762,0.192236 -0.958081,0.192236 -0.731738,0 -1.184423,-0.443383 -0.452686,-0.443384 -0.452686,-1.144117 0,-0.809253 0.483691,-1.27434 0.486792,-0.468189 1.299146,-0.468189 0.561206,0 0.812353,0.148828 v 0.830957 q -0.306958,-0.229443 -0.685229,-0.229443 -0.42168,0 -0.669727,0.248047 -0.244946,0.244946 -0.244946,0.679028 0,0.42168 0.235645,0.663525 0.235644,0.238746 0.648022,0.238746 0.365869,0 0.716235,-0.229444 z"
           id="path1920" />
        <path
           d="m 52.393663,32.59676 q -0.331763,0.192236 -0.958081,0.192236 -0.731739,0 -1.184424,-0.443383 -0.452686,-0.443384 -0.452686,-1.144117 0,-0.809253 0.483692,-1.27434 0.486792,-0.468189 1.299145,-0.468189 0.561206,0 0.812354,0.148828 v 0.830957 q -0.306958,-0.229443 -0.68523,-0.229443 -0.421679,0 -0.669726,0.248047 -0.244947,0.244946 -0.244947,0.679028 0,0.42168 0.235645,0.663525 0.235645,0.238746 0.648022,0.238746 0.36587,0 0.716236,-0.229444 z"
           id="path1922" />
        <path
           d="m 55.888024,31.403034 h -2.071192 q 0.04961,0.691431 0.871265,0.691431 0.523999,0 0.920874,-0.248047 v 0.706934 q -0.440283,0.235644 -1.144116,0.235644 -0.768946,0 -1.193726,-0.42478 -0.42478,-0.427881 -0.42478,-1.190625 0,-0.790649 0.458886,-1.252637 0.458887,-0.461987 1.128614,-0.461987 0.694531,0 1.072802,0.412378 0.381373,0.412378 0.381373,1.119312 z m -0.908472,-0.601513 q 0,-0.682129 -0.551904,-0.682129 -0.235645,0 -0.409278,0.195337 -0.170532,0.195337 -0.207739,0.486792 z"
           id="path1924" />
        <path
           d="m 56.263193,32.627766 v -0.79375 q 0.241846,0.145727 0.480591,0.217041 0.241845,0.07131 0.455786,0.07131 0.260449,0 0.409277,-0.07131 0.151929,-0.07131 0.151929,-0.217041 0,-0.09302 -0.06821,-0.155029 -0.06821,-0.06201 -0.176733,-0.108521 -0.10542,-0.04651 -0.232544,-0.08372 -0.127124,-0.03721 -0.244947,-0.08372 -0.189135,-0.07131 -0.334863,-0.151928 -0.142627,-0.08372 -0.241846,-0.192237 -0.09612,-0.10852 -0.148828,-0.251147 -0.04961,-0.142627 -0.04961,-0.337964 0,-0.26665 0.114722,-0.458887 0.117822,-0.192236 0.310058,-0.313159 0.195337,-0.124023 0.443384,-0.179834 0.251147,-0.05891 0.520898,-0.05891 0.21084,0 0.427881,0.03411 0.217041,0.03101 0.427881,0.09302 v 0.756543 q -0.186035,-0.10852 -0.399975,-0.16123 -0.21084,-0.05581 -0.415479,-0.05581 -0.09612,0 -0.182935,0.0186 -0.08371,0.0155 -0.148828,0.04961 -0.06511,0.03101 -0.102319,0.08372 -0.03721,0.04961 -0.03721,0.114721 0,0.08682 0.05581,0.148829 0.05581,0.06201 0.145727,0.10852 0.08992,0.04341 0.198438,0.08062 0.111621,0.03411 0.220141,0.07131 0.195337,0.06821 0.353467,0.148828 0.15813,0.08062 0.269751,0.189136 0.114722,0.10852 0.173633,0.254248 0.06201,0.145727 0.06201,0.347265 0,0.282154 -0.124023,0.483692 -0.120923,0.198437 -0.325562,0.325561 -0.201538,0.124024 -0.468188,0.179834 -0.26355,0.05891 -0.548804,0.05891 -0.523999,0 -0.970483,-0.16123 z"
           id="path1926" />
        <path
           d="m 60.777647,32.788996 q -0.79375,0 -1.249536,-0.443383 -0.452686,-0.446485 -0.452686,-1.209229 0,-0.787549 0.471289,-1.230933 0.471289,-0.446484 1.274341,-0.446484 0.790649,0 1.240234,0.446484 0.449585,0.443384 0.449585,1.175123 0,0.790649 -0.465088,1.249536 -0.461987,0.458886 -1.268139,0.458886 z m 0.0248,-2.579687 q -0.347265,0 -0.539501,0.238745 -0.192237,0.238745 -0.192237,0.675928 0,0.914673 0.73794,0.914673 0.703833,0 0.703833,-0.939478 0,-0.889868 -0.710035,-0.889868 z"
           id="path1928" />
      </g>
    </g>
  </g>
</svg>
