<?xml version="1.0" encoding="UTF-8" standalone="no"?>
<!-- Created with Inkscape (http://www.inkscape.org/) -->

<svg
   width="1.657567in"
   height="0.58364564in"
   viewBox="0 0 42.102202 14.824599"
   version="1.1"
   id="svg5"
   inkscape:version="1.2.2 (732a01da63, 2022-12-09)"
   sodipodi:docname="botonomm2024.svg"
   xmlns:inkscape="http://www.inkscape.org/namespaces/inkscape"
   xmlns:sodipodi="http://sodipodi.sourceforge.net/DTD/sodipodi-0.dtd"
   xmlns="http://www.w3.org/2000/svg"
   xmlns:svg="http://www.w3.org/2000/svg">
  <sodipodi:namedview
     id="namedview7"
     pagecolor="#ffffff"
     bordercolor="#111111"
     borderopacity="1"
     inkscape:showpageshadow="0"
     inkscape:pageopacity="0"
     inkscape:pagecheckerboard="1"
     inkscape:deskcolor="#d1d1d1"
     inkscape:document-units="mm"
     showgrid="true"
     inkscape:zoom="1.9237464"
     inkscape:cx="-34.827876"
     inkscape:cy="100.06517"
     inkscape:window-width="1600"
     inkscape:window-height="829"
     inkscape:window-x="-8"
     inkscape:window-y="-8"
     inkscape:window-maximized="1"
     inkscape:current-layer="layer1">
    <inkscape:grid
       type="xygrid"
       id="grid61"
       spacingx="1.0583333"
       spacingy="1.0583333"
       originx="-20.347073"
       originy="-15.418583" />
  </sodipodi:namedview>
  <defs
     id="defs2" />
  <g
     inkscape:label="Capa 1"
     inkscape:groupmode="layer"
     id="layer1"
     transform="translate(-20.347073,-15.418584)">
    <path
       id="rect284"
       style="opacity:0.999;fill:#80e5ff;stroke:#000000;stroke-width:0.675802;stop-color:#000000"
       d="m 24.847863,15.745283 h 33.100624 c 2.299821,0 4.151302,1.730747 4.151302,3.880599 v 6.410004 c 0,2.149851 -1.851481,3.880599 -4.151302,3.880599 H 24.847863 c -2.299821,0 -4.151301,-1.730748 -4.151301,-3.880599 v -6.410004 c 0,-2.149852 1.85148,-3.880599 4.151301,-3.880599 z" />
    <g
       aria-label="Más información
y acceso"
       id="text288"
       style="font-weight:bold;font-size:6.35px;line-height:129.609%;font-family:'Segoe UI';-inkscape-font-specification:'Segoe UI Bold';text-align:center;letter-spacing:0px;word-spacing:0px;text-anchor:middle;white-space:pre;opacity:0.999;stroke:#1a1a1a;stroke-width:0.25;stop-color:#000000"
       inkscape:export-filename="botonomm2024.png"
       inkscape:export-xdpi="90"
       inkscape:export-ydpi="90"
       transform="matrix(0.71198654,0,0,0.66555862,5.8519812,5.1640687)" />
    <g
       aria-label="Acceso al
examen"
       id="text4505"
       style="font-weight:bold;font-size:4.23333px;line-height:129.609%;font-family:'Segoe UI';-inkscape-font-specification:'Segoe UI Bold';text-align:center;letter-spacing:0px;word-spacing:0px;text-anchor:middle;white-space:pre;opacity:0.999;stop-color:#000000">
      <path
         d="m 34.476451,21.166668 h -0.727604 l -0.210839,-0.659391 h -1.054199 l -0.208772,0.659391 h -0.72347 L 32.63057,18.20251 h 0.791683 z m -1.091405,-1.172021 -0.318327,-0.99632 q -0.03514,-0.111621 -0.04961,-0.266651 h -0.01654 q -0.01034,0.130225 -0.05168,0.258382 l -0.322461,1.004589 z"
         id="path4509" />
      <path
         d="m 36.38641,21.090187 q -0.221174,0.128157 -0.63872,0.128157 -0.487825,0 -0.789615,-0.295589 -0.30179,-0.295589 -0.30179,-0.762743 0,-0.539502 0.322461,-0.84956 0.324527,-0.312125 0.866096,-0.312125 0.374137,0 0.541568,0.09922 v 0.553971 q -0.204638,-0.152962 -0.456819,-0.152962 -0.281119,0 -0.446484,0.165365 -0.163297,0.163297 -0.163297,0.452685 0,0.281119 0.157096,0.44235 0.157096,0.159163 0.432015,0.159163 0.243912,0 0.477489,-0.152962 z"
         id="path4511" />
      <path
         d="m 38.418326,21.090187 q -0.221175,0.128157 -0.63872,0.128157 -0.487825,0 -0.789615,-0.295589 -0.30179,-0.295589 -0.30179,-0.762743 0,-0.539502 0.32246,-0.84956 0.324528,-0.312125 0.866097,-0.312125 0.374137,0 0.541568,0.09922 v 0.553971 q -0.204638,-0.152962 -0.456819,-0.152962 -0.28112,0 -0.446484,0.165365 -0.163298,0.163297 -0.163298,0.452685 0,0.281119 0.157097,0.44235 0.157096,0.159163 0.432014,0.159163 0.243913,0 0.47749,-0.152962 z"
         id="path4513" />
      <path
         d="m 40.747898,20.29437 h -1.380793 q 0.03307,0.460954 0.580842,0.460954 0.349333,0 0.613916,-0.165365 v 0.471289 q -0.293522,0.157096 -0.762744,0.157096 -0.512629,0 -0.795816,-0.283186 -0.283187,-0.285254 -0.283187,-0.79375 0,-0.527099 0.305925,-0.83509 0.305924,-0.307991 0.752408,-0.307991 0.46302,0 0.715201,0.274918 0.254248,0.274918 0.254248,0.746207 z m -0.605647,-0.401008 q 0,-0.454753 -0.367936,-0.454753 -0.157097,0 -0.272852,0.130225 -0.113688,0.130224 -0.138492,0.324528 z"
         id="path4515" />
      <path
         d="m 40.998011,21.110857 v -0.529166 q 0.16123,0.09715 0.320394,0.144694 0.16123,0.04754 0.303857,0.04754 0.173632,0 0.272851,-0.04754 0.101286,-0.04754 0.101286,-0.144694 0,-0.06201 -0.04547,-0.103353 -0.04548,-0.04134 -0.117823,-0.07235 -0.07028,-0.03101 -0.155029,-0.05581 -0.08475,-0.02481 -0.163297,-0.05581 -0.12609,-0.04754 -0.223242,-0.101285 -0.09509,-0.05581 -0.16123,-0.128158 -0.06408,-0.07235 -0.09922,-0.167431 -0.03307,-0.09509 -0.03307,-0.225309 0,-0.177767 0.07648,-0.305924 0.07855,-0.128158 0.206706,-0.208773 0.130224,-0.08268 0.295589,-0.119889 0.167431,-0.03927 0.347265,-0.03927 0.14056,0 0.285254,0.02274 0.144693,0.02067 0.285253,0.06201 v 0.504361 q -0.124023,-0.07235 -0.26665,-0.107486 -0.14056,-0.03721 -0.276985,-0.03721 -0.06408,0 -0.121957,0.0124 -0.05581,0.01034 -0.09922,0.03307 -0.04341,0.02067 -0.06821,0.05581 -0.02481,0.03307 -0.02481,0.07648 0,0.05788 0.03721,0.09922 0.03721,0.04134 0.09715,0.07235 0.05994,0.02894 0.132291,0.05374 0.07441,0.02274 0.146761,0.04754 0.130225,0.04547 0.235645,0.09922 0.105419,0.05374 0.179833,0.126091 0.07648,0.07235 0.115756,0.169498 0.04134,0.09715 0.04134,0.231511 0,0.188102 -0.08268,0.32246 -0.08062,0.132292 -0.21704,0.217041 -0.134359,0.08268 -0.312126,0.119889 -0.175699,0.03927 -0.365869,0.03927 -0.349332,0 -0.646988,-0.107487 z"
         id="path4517" />
      <path
         d="m 44.007644,21.218344 q -0.529166,0 -0.833023,-0.295589 -0.30179,-0.297656 -0.30179,-0.806151 0,-0.525032 0.314192,-0.820621 0.314192,-0.297656 0.84956,-0.297656 0.527099,0 0.826822,0.297656 0.299723,0.295589 0.299723,0.783414 0,0.527099 -0.310058,0.833023 -0.307991,0.305924 -0.845426,0.305924 z m 0.01654,-1.71979 q -0.231511,0 -0.359668,0.159163 -0.128158,0.159164 -0.128158,0.450618 0,0.609782 0.49196,0.609782 0.469221,0 0.469221,-0.626318 0,-0.593245 -0.473355,-0.593245 z"
         id="path4519" />
      <path
         d="m 48.515893,21.166668 h -0.61805 v -0.303857 h -0.0083 q -0.212907,0.355533 -0.630452,0.355533 -0.307991,0 -0.485758,-0.173632 -0.1757,-0.1757 -0.1757,-0.467155 0,-0.615982 0.729671,-0.711067 l 0.574641,-0.07648 q 0,-0.347265 -0.376204,-0.347265 -0.378271,0 -0.719335,0.225309 v -0.49196 q 0.136425,-0.07028 0.37207,-0.124023 0.237711,-0.05374 0.432014,-0.05374 0.905371,0 0.905371,0.903303 z m -0.613916,-0.859895 v -0.142627 l -0.384472,0.04961 q -0.318327,0.04134 -0.318327,0.287321 0,0.111621 0.07648,0.183968 0.07855,0.07028 0.21084,0.07028 0.183968,0 0.299723,-0.126091 0.115755,-0.128157 0.115755,-0.32246 z"
         id="path4521" />
      <path
         d="m 49.685846,21.166668 h -0.65319 v -3.133656 h 0.65319 z"
         id="path4523" />
      <path
         d="m 35.104836,25.781146 h -1.380793 q 0.03307,0.460954 0.580842,0.460954 0.349333,0 0.613916,-0.165365 v 0.471289 q -0.293522,0.157096 -0.762744,0.157096 -0.512629,0 -0.795816,-0.283186 -0.283187,-0.285254 -0.283187,-0.79375 0,-0.527099 0.305925,-0.83509 0.305924,-0.307991 0.752408,-0.307991 0.46302,0 0.715201,0.274918 0.254248,0.274918 0.254248,0.746207 z m -0.605647,-0.401008 q 0,-0.454753 -0.367936,-0.454753 -0.157096,0 -0.272852,0.130225 -0.113688,0.130224 -0.138492,0.324528 z"
         id="path4525" />
      <path
         d="m 37.53776,24.536779 -0.698665,1.02526 0.694531,1.091405 h -0.752408 l -0.305924,-0.570507 q -0.03721,-0.06821 -0.08888,-0.192237 h -0.0083 q -0.03101,0.08682 -0.08475,0.186035 l -0.307991,0.576709 H 35.23506 l 0.715202,-1.054198 -0.671793,-1.062467 h 0.756542 l 0.30179,0.593245 q 0.05994,0.117822 0.08475,0.198437 h 0.0083 q 0.03307,-0.09715 0.08888,-0.202571 l 0.307991,-0.589111 z"
         id="path4527" />
      <path
         d="m 39.592414,26.653444 h -0.61805 v -0.303857 h -0.0083 q -0.212907,0.355533 -0.630452,0.355533 -0.307991,0 -0.485758,-0.173632 -0.1757,-0.1757 -0.1757,-0.467155 0,-0.615983 0.729671,-0.711067 l 0.574641,-0.07648 q 0,-0.347265 -0.376204,-0.347265 -0.378271,0 -0.719335,0.225309 v -0.49196 q 0.136425,-0.07028 0.37207,-0.124023 0.237711,-0.05374 0.432014,-0.05374 0.905371,0 0.905371,0.903303 z m -0.613916,-0.859895 v -0.142627 l -0.384472,0.04961 q -0.318327,0.04134 -0.318327,0.287321 0,0.111621 0.07648,0.183968 0.07855,0.07028 0.21084,0.07028 0.183968,0 0.299723,-0.126091 0.115755,-0.128157 0.115755,-0.32246 z"
         id="path4529" />
      <path
         d="m 43.47021,26.653444 h -0.651123 v -1.207161 q 0,-0.460953 -0.338997,-0.460953 -0.16123,0 -0.262516,0.138493 -0.101286,0.138492 -0.101286,0.345198 v 1.184423 h -0.653189 v -1.219563 q 0,-0.448551 -0.332796,-0.448551 -0.167432,0 -0.268717,0.132292 -0.09922,0.132291 -0.09922,0.359667 v 1.176155 h -0.65319 v -2.116665 h 0.65319 v 0.330729 h 0.0083 q 0.101286,-0.169499 0.283187,-0.274919 0.183968,-0.107486 0.401009,-0.107486 0.448551,0 0.613915,0.394807 0.241846,-0.394807 0.711067,-0.394807 0.690397,0 0.690397,0.851626 z"
         id="path4531" />
      <path
         d="m 45.888665,25.781146 h -1.380793 q 0.03307,0.460954 0.580842,0.460954 0.349333,0 0.613916,-0.165365 v 0.471289 q -0.293522,0.157096 -0.762744,0.157096 -0.51263,0 -0.795816,-0.283186 -0.283187,-0.285254 -0.283187,-0.79375 0,-0.527099 0.305924,-0.83509 0.305925,-0.307991 0.752409,-0.307991 0.46302,0 0.715201,0.274918 0.254248,0.274918 0.254248,0.746207 z m -0.605648,-0.401008 q 0,-0.454753 -0.367935,-0.454753 -0.157097,0 -0.272852,0.130225 -0.113688,0.130224 -0.138493,0.324528 z"
         id="path4533" />
      <path
         d="m 48.321589,26.653444 h -0.651122 v -1.176155 q 0,-0.491959 -0.3514,-0.491959 -0.169498,0 -0.279052,0.130225 -0.109554,0.130224 -0.109554,0.330728 v 1.207161 h -0.65319 v -2.116665 h 0.65319 v 0.334863 h 0.0083 q 0.233577,-0.386539 0.680061,-0.386539 0.702799,0 0.702799,0.872297 z"
         id="path4535" />
    </g>
  </g>
</svg>
